<svg xmlns="http://www.w3.org/2000/svg" width="248.001" height="64" viewBox="0 0 248.001 64">
  <g id="logo" transform="translate(-16.775 -12.5)">
    <text id="AH_Talot" data-name="AH Talot" transform="translate(91.776 62.5)" fill="#fff" stroke="#fff" stroke-linecap="round" stroke-linejoin="round" stroke-width="2" font-size="50" font-family="SFCompactDisplay-Ultralight, SF Display" font-weight="100"><tspan x="0" y="0">AH Talot</tspan></text>
    <g id="ff223c0ac7dbc435066a1053d5e89cdf" transform="translate(16.775 17.912)">
      <path id="Path_4" data-name="Path 4" d="M35.248,55.288C35,54.8,34.514,54.8,34.021,54.8a3.521,3.521,0,0,0-1.468.488L10.488,75.633C10,75.88,10,76.367,10,76.86a1.891,1.891,0,0,0,.488,1.227,3.452,3.452,0,0,0,1.468.488,3.521,3.521,0,0,0,1.468-.488L34.016,59.215,54.849,78.58a3.452,3.452,0,0,0,1.468.488,3.521,3.521,0,0,0,1.468-.488c.488-.246.488-.734.488-1.227a1.9,1.9,0,0,0-.488-1.227ZM48,78.087a2.109,2.109,0,0,0-1.961,1.961V94.756H21.767V80.048a2.109,2.109,0,0,0-1.961-1.961,2.109,2.109,0,0,0-1.961,1.961V96.718a2.109,2.109,0,0,0,1.961,1.961H47.749a2.109,2.109,0,0,0,1.961-1.961V80.048A1.735,1.735,0,0,0,48,78.087Z" transform="translate(-10 -54.8)" fill="#fff"/>
    </g>
    <g id="ff223c0ac7dbc435066a1053d5e89cdf-2" data-name="ff223c0ac7dbc435066a1053d5e89cdf" transform="translate(35.5 17.912)">
      <path id="Path_4-2" data-name="Path 4" d="M35.248,55.288C35,54.8,34.514,54.8,34.021,54.8a3.521,3.521,0,0,0-1.468.488L10.488,75.633C10,75.88,10,76.367,10,76.86a1.891,1.891,0,0,0,.488,1.227,3.452,3.452,0,0,0,1.468.488,3.521,3.521,0,0,0,1.468-.488L34.016,59.215,54.849,78.58a3.452,3.452,0,0,0,1.468.488,3.521,3.521,0,0,0,1.468-.488c.488-.246.488-.734.488-1.227a1.9,1.9,0,0,0-.488-1.227ZM48,78.087a2.109,2.109,0,0,0-1.961,1.961V94.756H21.767V80.048a2.109,2.109,0,0,0-1.961-1.961,2.109,2.109,0,0,0-1.961,1.961V96.718a2.109,2.109,0,0,0,1.961,1.961H47.749a2.109,2.109,0,0,0,1.961-1.961V80.048A1.735,1.735,0,0,0,48,78.087Z" transform="translate(-10 -54.8)" fill="#fff"/>
    </g>
  </g>
</svg>
