<svg xmlns="http://www.w3.org/2000/svg" width="390.671" height="306.135" viewBox="0 0 390.671 306.135">
  <g id="In_the_pool-pana" data-name="In the pool-pana" transform="matrix(0.998, -0.07, 0.07, 0.998, -60.427, -48.828)">
    <g id="freepik--background-simple--inject-12" transform="translate(78.872 78.89)">
      <path id="Path_9" data-name="Path 9" d="M425.29,151.573c-4.53-20.514-14.64-40.532-31.68-54.446-30.2-24.671-80.89-24.258-110.61.918-22.84,19.33-34.13,50.573-62.4,62.413-18.16,7.591-39.11,5.186-59,6.425-33.46,2.019-69,17.98-79.62,47.168-7.65,21.028-.53,44.974,14.26,62.486l.45.523c23.107,27.282,54.878,47.3,90.92,57.291h0a227.187,227.187,0,0,0,43.34,7.655c94.88,7.288,146-22.432,175.5-82.743l1.6-2.533C426.18,227.827,432.51,184.2,425.29,151.573Z" transform="translate(-78.872 -78.89)" fill="rgba(235,235,235,0.18)"/>
      <path id="Path_10" data-name="Path 10" d="M218.31,114.073A35.176,35.176,0,0,0,202.1,88.612c-9.21-5.663-21.74-6.783-31.47-1.992-7.65,3.414-14.83,9.858-19.57,16.328s-6.89,14.786-4.53,22.285c2.32,7.343,8.77,13.272,16.35,16.521s16.17,4,24.5,3.442c9.18-.615,18.81-3.111,24.83-9.5C217.66,129.86,219.28,121.682,218.31,114.073Z" transform="translate(-78.872 -79.278)" fill="rgba(235,235,235,0.18)"/>
    </g>
    <g id="freepik--Character--inject-12" transform="translate(44.76 151.125)">
      <ellipse id="Ellipse_11" data-name="Ellipse 11" cx="123.65" cy="67.516" rx="123.65" ry="67.516" transform="translate(85.18 78.758)" fill="#ed9622"/>
      <g id="Group_18" data-name="Group 18" transform="translate(84.24 121.409)" opacity="0.3">
        <path id="Path_11" data-name="Path 11" d="M130.48,320.342c-1.77,3.671,1.52,8.16,5.74,9.261s8.75-.349,12.51-2.423,7.09-4.791,11-6.608c11-5.14,24.26-2.331,36.21.569l35.35,8.609c14.87,3.616,29.92,7.26,45.3,7.627S308,334.55,320,325.785c6.7-4.892,12.84-11.73,21.39-12.262,4.44-.266,8.76,1.285,12.88,2.827s8.43,3.121,12.88,2.91,9.1-2.809,9.92-6.829c1.15-5.718-5.35-10.1-11-12.639-12.23-5.58-25.41-10.555-39-9.858-19.6,1.01-36.39,13.446-55.67,16.824-31.08,5.452-61.81-13.345-93.4-11.565-19.335,1.187-37.183,9.942-49,24.038" transform="translate(-129 -289.869)"/>
      </g>
      <path id="Path_12" data-name="Path 12" d="M329,170.945a6.426,6.426,0,0,1-1.76-7.031,8.878,8.878,0,0,1,5.78-5.1c1.95-.6,4.59-.376,5.41,1.349a9.609,9.609,0,0,1,12.765-.28,7.815,7.815,0,0,1,.3,11.716c1.4,1.413.48,3.855-1.24,4.938a4.2,4.2,0,0,1-2.84.67,2.3,2.3,0,0,1-2-1.836" transform="translate(-44.76 -157.591)" fill="#263238"/>
      <path id="Path_13" data-name="Path 13" d="M327.22,176.475a19.023,19.023,0,0,1,1-3.442,1.723,1.723,0,0,1,1.29-1.184,2.839,2.839,0,0,1,.88.046,73.285,73.285,0,0,1,14.35,3.3c.92.34,1.92.835,2.15,1.716a2.54,2.54,0,0,1-.13,1.322,14.956,14.956,0,0,1-1.31,3.167,1.324,1.324,0,0,1-.47.56,1.5,1.5,0,0,1-.73.138,19.734,19.734,0,0,1-8.4-1.744" transform="translate(-44.76 -158.761)" fill="#ed9622"/>
      <path id="Path_14" data-name="Path 14" d="M346.31,180.621a1.957,1.957,0,0,0-.85,1.836,4.667,4.667,0,0,0,.82,1.973,7.811,7.811,0,0,0,2.57,2.625c1.84,1.065,4.18,1,6.35.918a24.216,24.216,0,0,0-.86-3.01,10.481,10.481,0,0,0-1.59-3.111,5.482,5.482,0,0,0-3-1.992,3.829,3.829,0,0,0-3.47.817" transform="translate(-44.76 -159.411)" fill="#ed9622"/>
      <g id="Group_19" data-name="Group 19" transform="translate(300.686 20.329)" opacity="0.3">
        <path id="Path_15" data-name="Path 15" d="M346.31,180.621a1.957,1.957,0,0,0-.85,1.836,4.667,4.667,0,0,0,.82,1.973,7.811,7.811,0,0,0,2.57,2.625c1.84,1.065,4.18,1,6.35.918a24.216,24.216,0,0,0-.86-3.01,10.481,10.481,0,0,0-1.59-3.111,5.482,5.482,0,0,0-3-1.992,3.829,3.829,0,0,0-3.47.817" transform="translate(-345.446 -179.74)"/>
      </g>
      <path id="Path_16" data-name="Path 16" d="M346.53,179.03a3.189,3.189,0,0,1,2.51-1.45,6.09,6.09,0,0,1,2.34.468,6.7,6.7,0,0,0,2.42.743,6.448,6.448,0,0,0,2.45-.523,3.126,3.126,0,0,1-.62,2.955,5.883,5.883,0,0,1-2.11,1.413,6.641,6.641,0,0,1-2.55.652,6.486,6.486,0,0,1-3.15-.918,4.037,4.037,0,0,1-1.52-1.239,2.05,2.05,0,0,1,.23-2.1" transform="translate(-44.76 -159.234)" fill="#ed9622"/>
      <path id="Path_17" data-name="Path 17" d="M350.9,181.117c-.07,0-.21-.184-.64-.413a5.9,5.9,0,0,0-1.58-.826,3.52,3.52,0,0,0-1.77,0c-.45.119-.71.275-.76.22s.14-.3.62-.532a3.136,3.136,0,0,1,2-.193,3.976,3.976,0,0,1,1.68,1.037C350.88,180.74,351,181.107,350.9,181.117Z" transform="translate(-44.76 -159.374)" fill="#263238"/>
      <path id="Path_18" data-name="Path 18" d="M351.81,179.45a7.79,7.79,0,0,0-5.63.486c0-.046.17-.3.64-.6a4.816,4.816,0,0,1,2.08-.652,5.042,5.042,0,0,1,2.17.285C351.59,179.175,351.85,179.395,351.81,179.45Z" transform="translate(-44.76 -159.323)" fill="#263238"/>
      <path id="Path_19" data-name="Path 19" d="M344.75,182.385c-.05-.055.18-.285.45-.707a8.462,8.462,0,0,0,.86-1.744c.59-1.45.89-2.625,1-2.634s.12.33,0,.854a10.022,10.022,0,0,1-.54,1.937,5.466,5.466,0,0,1-1.06,1.79C345.12,182.275,344.79,182.431,344.75,182.385Z" transform="translate(-44.76 -159.211)" fill="#263238"/>
      <path id="Path_20" data-name="Path 20" d="M329.89,175.827a3.157,3.157,0,0,1,.11-1.992c.26-1.092.73-1.9.86-1.836a17.616,17.616,0,0,1-.92,3.864Z" transform="translate(-44.76 -158.775)" fill="#fafafa"/>
      <path id="Path_21" data-name="Path 21" d="M332.91,176.229a3.562,3.562,0,0,1,.15-1.836c.23-.991.52-1.771.67-1.753s.07.844-.16,1.836S333.05,176.256,332.91,176.229Z" transform="translate(-44.76 -158.828)" fill="#fafafa"/>
      <path id="Path_22" data-name="Path 22" d="M335.25,176.622c-.14-.046.1-.835.44-1.771s.57-1.689.71-1.67.14.854-.22,1.836S335.38,176.686,335.25,176.622Z" transform="translate(-44.76 -158.872)" fill="#fafafa"/>
      <path id="Path_23" data-name="Path 23" d="M338.45,177.653a7.816,7.816,0,0,1,1-3.873,7.946,7.946,0,0,1-1,3.873Z" transform="translate(-44.76 -158.921)" fill="#fafafa"/>
      <path id="Path_24" data-name="Path 24" d="M340.8,178.941a10.41,10.41,0,0,1,.83-2.24,9.59,9.59,0,0,1,.9-2.221A6.234,6.234,0,0,1,340.8,178.941Z" transform="translate(-44.76 -158.979)" fill="#fafafa"/>
      <path id="Path_25" data-name="Path 25" d="M343.09,181.818a24.29,24.29,0,0,1,1.21-2.891,24.465,24.465,0,0,1,1.09-2.937,8.786,8.786,0,0,1-2.3,5.828Z" transform="translate(-44.76 -159.103)" fill="#fafafa"/>
      <path id="Path_26" data-name="Path 26" d="M321,175.555a8.64,8.64,0,0,0-10.41,3.194c-1.25,2.166-1.32,4.92-3.13,6.719-.95.918-2.26,1.5-3.26,2.377a8.074,8.074,0,0,0-2.41,5.443c-.39,4.543,3.92,11.014,7.49,14.135" transform="translate(-44.76 -159.017)" fill="#263238"/>
      <path id="Path_27" data-name="Path 27" d="M342,192.265l-8.61,43.8c-1.257,5.363-6.95,8.823-12.82,7.792h0c-5.942-1.064-9.83-6.335-8.7-11.794l2.94-13.96s-7.35-2.5-7-11.868c.16-4.663,2-12.024,3.66-18.017,1.52-5.379,6.85-11.546,14.76-10.1C326.25,178.093,343.76,179.993,342,192.265Z" transform="translate(-44.76 -159.26)" fill="#ffbe9d"/>
      <path id="Path_28" data-name="Path 28" d="M311.92,196.153a1.1,1.1,0,0,0,.183.889,1.289,1.289,0,0,0,.817.506,1.348,1.348,0,0,0,.95-.117,1.165,1.165,0,0,0,.58-.7,1.2,1.2,0,0,0-1-1.4,1.338,1.338,0,0,0-.952.114,1.154,1.154,0,0,0-.578.7Z" transform="translate(-44.76 -160.689)" fill="#263238"/>
      <path id="Path_29" data-name="Path 29" d="M311.9,194.794c.13.174,1.23-.3,2.59-.064s2.24,1.056,2.42.918,0-.358-.39-.725a3.642,3.642,0,0,0-1.9-.918,3.689,3.689,0,0,0-2.1.229C312,194.464,311.84,194.711,311.9,194.794Z" transform="translate(-44.76 -160.578)" fill="#263238"/>
      <path id="Path_30" data-name="Path 30" d="M325.14,198.7a1.1,1.1,0,0,0,.183.889,1.289,1.289,0,0,0,.817.506,1.338,1.338,0,0,0,.952-.114,1.154,1.154,0,0,0,.578-.7,1.1,1.1,0,0,0-.183-.889,1.289,1.289,0,0,0-.817-.506,1.316,1.316,0,0,0-.956.107,1.134,1.134,0,0,0-.574.71Z" transform="translate(-44.76 -160.898)" fill="#263238"/>
      <path id="Path_31" data-name="Path 31" d="M325.34,197.384c.13.174,1.23-.3,2.59-.064s2.24,1.056,2.42.918,0-.358-.39-.725a3.683,3.683,0,0,0-1.9-.918,3.6,3.6,0,0,0-2.1.239C325.48,197.053,325.28,197.3,325.34,197.384Z" transform="translate(-44.76 -160.791)" fill="#263238"/>
      <path id="Path_32" data-name="Path 32" d="M318.68,205.9a10.682,10.682,0,0,0-2.14-.762c-.34-.092-.66-.211-.67-.441a1.588,1.588,0,0,1,.43-.918l1.55-2.258c2.16-3.222,3.8-5.892,3.65-5.966a42.966,42.966,0,0,0-4.17,5.681c-.52.8-1,1.551-1.5,2.276a1.741,1.741,0,0,0-.45,1.23.822.822,0,0,0,.48.569,2.97,2.97,0,0,0,.57.184,9.4,9.4,0,0,0,2.25.4Z" transform="translate(-44.76 -160.711)" fill="#263238"/>
      <path id="Path_33" data-name="Path 33" d="M314.84,221.618a27.874,27.874,0,0,0,13.94-.918s-4.53,5.672-14.26,3.066Z" transform="translate(-44.76 -162.776)" fill="#eb996e"/>
      <path id="Path_34" data-name="Path 34" d="M318.36,211.43a1.109,1.109,0,0,1,.32-1.239,1.349,1.349,0,0,1,1.36-.184,1.041,1.041,0,0,1,.94-.918,1.616,1.616,0,0,1,1.3.459,1.84,1.84,0,0,1,.22,2.368,2.446,2.446,0,0,1-2.45.863,2.474,2.474,0,0,1-1.85-1.753" transform="translate(-44.76 -161.822)" fill="#eb996e"/>
      <path id="Path_35" data-name="Path 35" d="M322.52,208.55c-.22-.046-.51,1.313-2,2.056s-3,.312-3.07.5.3.33,1,.468a4.08,4.08,0,0,0,2.55-.34,3.055,3.055,0,0,0,1.56-1.744C322.72,208.963,322.63,208.559,322.52,208.55Z" transform="translate(-44.76 -161.778)" fill="#263238"/>
      <path id="Path_36" data-name="Path 36" d="M324.61,194.78c.06.367,1.46.45,3,.918s2.77,1.092,3.05.826c.13-.128,0-.486-.48-.918a5.48,5.48,0,0,0-2.16-1.147,5.667,5.667,0,0,0-2.48-.165C324.94,194.395,324.58,194.615,324.61,194.78Z" transform="translate(-44.76 -160.601)" fill="#263238"/>
      <path id="Path_37" data-name="Path 37" d="M312.6,192.176c.18.33,1.19.2,2.32.385s2.05.569,2.33.3c.13-.128,0-.441-.32-.78a3.436,3.436,0,0,0-1.79-.8,3.393,3.393,0,0,0-2,.248C312.72,191.753,312.52,192.019,312.6,192.176Z" transform="translate(-44.76 -160.355)" fill="#263238"/>
      <path id="Path_38" data-name="Path 38" d="M328.37,203.143a.327.327,0,0,1-.41.092.261.261,0,0,1-.08-.376.29.29,0,0,1,.186-.122.312.312,0,0,1,.224.039.253.253,0,0,1,.08.367Z" transform="translate(-44.76 -161.3)" fill="#263238"/>
      <path id="Path_39" data-name="Path 39" d="M350.78,200.042a19.7,19.7,0,0,0-2.71-9.793,11.059,11.059,0,0,1-.74-1.689,43.884,43.884,0,0,0-1.48-4.589,6.42,6.42,0,0,0-2.44-2.754,10.108,10.108,0,0,0-1.74-1.716c-2.93-2.24-6.91-2.836-10.68-3.341s-11.28-5.122-13.66,3.589a3.3,3.3,0,0,1,2.72-.48,3,3,0,0,1,2.04,1.719,4.768,4.768,0,0,1,0,3.928c-.59,1.432-1.13,3.029-.53,4.452a4.855,4.855,0,0,0,4,2.524,15.55,15.55,0,0,0,5.06-.569s0,5.975,3.88,8.1l-3.09,7.976c-.32,1.184-.56,2.23-.72,3.148-.52,2.919,3.1,9.894,6.76,6.425,0,0,13.16-11.161,13.27-16.466Z" transform="translate(-44.76 -158.98)" fill="#263238"/>
      <path id="Path_40" data-name="Path 40" d="M307.56,180.465a1.3,1.3,0,0,0-.79-.844,1.279,1.279,0,0,0-1.31.248,1.427,1.427,0,0,0-.39,1.588,2.279,2.279,0,0,0,1.61,1.386,3.224,3.224,0,0,0,2.54-.385,2.662,2.662,0,0,0,1.14-2.359,17.488,17.488,0,0,1,0-3.148,6.669,6.669,0,0,1,4-4.745,7.076,7.076,0,0,1,5.38.055,6.708,6.708,0,0,1,2.81,2.148,3.756,3.756,0,0,1,.48.8.867.867,0,0,1,.11.3c-.05,0-.24-.385-.75-.991a6.973,6.973,0,0,0-2.8-1.946,6.754,6.754,0,0,0-5,0A6.265,6.265,0,0,0,310.87,177a18.538,18.538,0,0,0,0,3.075,3.681,3.681,0,0,1-.32,1.533,2.7,2.7,0,0,1-1.06,1.184,3.81,3.81,0,0,1-2.94.4,2.649,2.649,0,0,1-1.83-1.67,1.737,1.737,0,0,1,.55-1.891,1.5,1.5,0,0,1,1.58-.211,1.18,1.18,0,0,1,.68.688C307.6,180.355,307.57,180.465,307.56,180.465Z" transform="translate(-44.76 -158.75)" fill="#263238"/>
      <path id="Path_41" data-name="Path 41" d="M389.62,285.067l-26.07-33.382a33.982,33.982,0,0,0-10.85-9.068,181.273,181.273,0,0,0-18.64-8.261l-24.55-6.517-19.26,15.319,4.08,18.182,36.08,10.913c11.17-7.26,16.25-4.938,16.25-4.938l20.6,18.357-33.49-5.59-1.71,13.373,40,9.968c4.6,1.147,12.81,1.23,17.3-3.671h0A11.6,11.6,0,0,0,389.62,285.067Z" transform="translate(-44.76 -163.363)" fill="#ffbe9d"/>
      <path id="Path_42" data-name="Path 42" d="M199.77,206.62l40.09,24.13s53.09-5.727,56.34-5.9a53.859,53.859,0,0,1,14,1.45l-18.9,17.384s-31.48-6.021-63.76-1.9l-34.15-24.717Z" transform="translate(-44.76 -161.62)" fill="#ffbe9d"/>
      <path id="Path_43" data-name="Path 43" d="M333.77,284.84l-12.38,5.948-7.24,20.358,1.77.881,6.43-8.7,9.71-5.112Z" transform="translate(-44.76 -168.046)" fill="#ffbe9d"/>
      <path id="Path_44" data-name="Path 44" d="M199.77,205.9a7.481,7.481,0,0,0-1.36-.918l-6.95-6.59s-9.66-.56-10.17-.56c-3.07,0-1.29,2.662-1.29,2.662-2.29.753.16,3.157.16,3.157-2.78,1.349-.16,3.46-.16,3.46-2.74,1.23-.57,3.1-.57,3.1l5,4.3.67.174,1.57-1.257,7.92,3.947.31-.34" transform="translate(-44.76 -160.897)" fill="#ffbe9d"/>
      <path id="Path_45" data-name="Path 45" d="M180.62,188.4l-2.42-21.881,12.71-1.184,2.42,21.881a5.9,5.9,0,0,1-4.75,6.241l3.33,30.123c2.93-.229,5.21-.211,5.24.073s-2.69.817-6.09,1.129-6.18.321-6.21,0,2.15-.707,5.15-1.01l-3.33-30.123a6.174,6.174,0,0,1-6.05-5.25Z" transform="translate(-44.76 -158.227)" fill="#f5f5f5"/>
      <path id="Path_46" data-name="Path 46" d="M180.62,188.379a6.921,6.921,0,0,0,.7,2.01,6.2,6.2,0,0,0,1.79,1.946,6.784,6.784,0,0,0,3.53,1.175h.1v.092c.76,6.618,2,17.154,3.44,30.105v.2h-.22c-.87.1-1.75.211-2.63.349-.45.073-.89.156-1.33.248l-.64.174a1.454,1.454,0,0,0-.27.1c-.05,0-.07.046-.05,0a.136.136,0,0,0,0-.138h0a5.617,5.617,0,0,0,1.27.119h1.4c.94,0,1.89-.1,2.85-.184a43.5,43.5,0,0,0,5.8-.835,2.62,2.62,0,0,0,.56-.211c-.05,0,0,.1,0,.156v.055h-.11q-.168-.035-.34-.055h-1.5c-1,0-2,.083-3.06.156h-.25v-.22c-.61-5.507-1.25-11.234-1.9-17.145-.49-4.424-1-8.775-1.43-12.978v-.2l.22-.055a6.171,6.171,0,0,0,3.47-2.2,5.179,5.179,0,0,0,1.1-3.671q-.43-3.983-.84-7.765c-.55-5.039-1.07-9.812-1.55-14.245l.23.174-12.71,1.156.16-.184c.72,6.764,1.29,12.235,1.69,16.035.19,1.836.33,3.332.44,4.341,0,.486.07.863.09,1.138a2.225,2.225,0,0,1,0,.385,2.362,2.362,0,0,1-.07-.385,9.811,9.811,0,0,0-.15-1.12c-.12-1.019-.3-2.478-.53-4.341-.44-3.782-1.08-9.289-1.88-16.044v-.165h.19l12.7-1.221h.21v.2c.49,4.433,1,9.178,1.6,14.245.28,2.515.56,5.112.86,7.765a5.678,5.678,0,0,1-1.18,3.965,6.732,6.732,0,0,1-3.76,2.4l.19-.257c.46,4.213.94,8.554,1.43,12.987.66,5.911,1.29,11.675,1.89,17.136l-.27-.2c1-.083,2.07-.138,3.1-.156h1.55l.41.055a1.3,1.3,0,0,1,.24.083.347.347,0,0,1,.18.165.3.3,0,0,1-.06.312,2.082,2.082,0,0,1-.8.349,41.865,41.865,0,0,1-5.89.844c-1,.083-1.93.147-2.88.174h-1.43a4.649,4.649,0,0,1-1.49-.184s-.31-.211-.16-.413a.49.49,0,0,1,.22-.174,2.24,2.24,0,0,1,.36-.138c.23-.073.46-.128.68-.184l1.36-.248c.89-.138,1.78-.248,2.66-.349l-.2.229c-1.38-12.96-2.51-23.506-3.22-30.133l.11.092a6.146,6.146,0,0,1-5.95-4.8C180.63,188.562,180.62,188.379,180.62,188.379Z" transform="translate(-44.76 -158.211)" fill="#263238"/>
      <path id="Path_47" data-name="Path 47" d="M197,204.849l-11.08-4.589a3.265,3.265,0,0,0,.3,3.148,8.626,8.626,0,0,0,2.47,2.359,25.142,25.142,0,0,1,2.79,2.065,6.648,6.648,0,0,0,.67,6.168,5.335,5.335,0,0,0,6.12,1.771" transform="translate(-44.76 -161.097)" fill="#ffbe9d"/>
      <path id="Path_48" data-name="Path 48" d="M191.3,177.734c-1.2-.321-2.42.486-3.25,1.349a7.054,7.054,0,0,1-2.79,2.258,7.832,7.832,0,0,1-2.54.083c-.85,0-1-.349-1.68.156,0,0,.55,7.7,1.66,9.766,1.66,3.075,8.77,2.754,9.5-1.634C192.63,187.151,191.3,177.734,191.3,177.734Z" transform="translate(-44.76 -159.24)" fill="#ed9622"/>
      <path id="Path_49" data-name="Path 49" d="M196,204.4a18.076,18.076,0,0,1-2.94-1.01c-1.81-.7-4.36-1.707-7.31-2.91l.44-.2a4.541,4.541,0,0,0,1.35,3.947,11.958,11.958,0,0,0,2.39,1.836c.42.275.85.5,1.3.8a2.218,2.218,0,0,1,.57.615,1.363,1.363,0,0,1,.15.8c-.06.514-.2.918-.26,1.285a6.658,6.658,0,0,0,2.23,5.782,11.422,11.422,0,0,1,.93.78,2.961,2.961,0,0,1-1.1-.606,6.663,6.663,0,0,1-2.08-2.579,6.8,6.8,0,0,1-.58-3.442,9.457,9.457,0,0,1,.23-1.257c.14-.753-.91-1.12-1.78-1.67a11.883,11.883,0,0,1-2.52-1.983,5,5,0,0,1-1.47-4.47l.09-.349.35.147c2.94,1.239,5.45,2.322,7.22,3.111A19.993,19.993,0,0,1,196,204.4Z" transform="translate(-44.76 -161.056)" fill="#eb996e"/>
      <path id="Path_50" data-name="Path 50" d="M184.54,215.153a.853.853,0,0,0,.58.128.9.9,0,0,0,.638-.347.753.753,0,0,0,.122-.671c-.1-.642-.81-1.138-1.69-1.661l-2.82-1.836.38-.486a13.66,13.66,0,0,0,2.16,1.166,11.237,11.237,0,0,0,2,.67c.62.129,1.13-.266.92-.624a6.129,6.129,0,0,0-1.25-1.129l-1.25-1.01a15.771,15.771,0,0,1-2.36-2.1,15.806,15.806,0,0,1,2.67,1.771l1.29.918.72.532a2.472,2.472,0,0,1,.74.753.923.923,0,0,1-.31,1.193,1.712,1.712,0,0,1-1.27.266,11.179,11.179,0,0,1-2.21-.716,13.235,13.235,0,0,1-2.27-1.23l.39-.486,2.77,1.836a8.342,8.342,0,0,1,1.17.918,1.949,1.949,0,0,1,.6,1.138,1.085,1.085,0,0,1-1.17,1.276C184.45,215.281,184.51,215.153,184.54,215.153Z" transform="translate(-44.76 -161.671)" fill="#eb996e"/>
      <path id="Path_51" data-name="Path 51" d="M185.71,210c-.05-.1.56-.239,1.07-.734a.723.723,0,0,0,0-.991,6.679,6.679,0,0,0-1.28-1.129c-2-1.6-3.54-2.992-3.42-3.121s1.85,1.065,3.86,2.653a5.853,5.853,0,0,1,1.36,1.3,1.33,1.33,0,0,1,.23.918,1.146,1.146,0,0,1-.4.707,2.266,2.266,0,0,1-1,.441C185.87,210.05,185.73,210.05,185.71,210Z" transform="translate(-44.76 -161.406)" fill="#eb996e"/>
      <path id="Path_52" data-name="Path 52" d="M186.09,207.282c0-.083.55,0,1-.459a1.653,1.653,0,0,0-.39-2.212c-1.58-1.6-2.87-2.992-2.72-3.111s1.59,1.056,3.24,2.754a2.721,2.721,0,0,1,.75,1.56,1.5,1.5,0,0,1-.55,1.349,1.363,1.363,0,0,1-1,.312C186.18,207.41,186.07,207.309,186.09,207.282Z" transform="translate(-44.76 -161.198)" fill="#eb996e"/>
      <path id="Path_53" data-name="Path 53" d="M347.81,262.829a14.122,14.122,0,0,0-3.95,2.148,12.527,12.527,0,0,0-2.57,3.5,2.317,2.317,0,0,1,.29-1.267,7.235,7.235,0,0,1,1.92-2.579,7.864,7.864,0,0,1,2.91-1.6,2.95,2.95,0,0,1,1.4-.2Z" transform="translate(-44.76 -166.237)" fill="#eb996e"/>
      <path id="Path_54" data-name="Path 54" d="M374.93,295.953a20.978,20.978,0,0,0-4.19-3.332,22.992,22.992,0,0,0-5.17-1.836,4.347,4.347,0,0,1,1.67.083,12.417,12.417,0,0,1,3.77,1.322,11.274,11.274,0,0,1,3.05,2.432,3.436,3.436,0,0,1,.87,1.331Z" transform="translate(-44.76 -168.531)" fill="#eb996e"/>
      <path id="Path_55" data-name="Path 55" d="M310.34,251.882a12.112,12.112,0,0,0-4.22,1.634,10.992,10.992,0,0,0-2.85,3.277,2.387,2.387,0,0,1,.38-1.248,7.275,7.275,0,0,1,5.28-3.671,2.814,2.814,0,0,1,1.41.009Z" transform="translate(-44.76 -165.331)" fill="#eb996e"/>
      <path id="Path_56" data-name="Path 56" d="M237.54,237.917a4.765,4.765,0,0,1,2.11-5.287,23.308,23.308,0,0,0-1.47,2.506,23.95,23.95,0,0,0-.64,2.781Z" transform="translate(-44.76 -163.757)" fill="#eb996e"/>
      <path id="Path_57" data-name="Path 57" d="M320.81,318.13l-.25.156-.77.422-3,1.579-2.16,1.129c-.8.395-1.7.762-2.65,1.193-1.93.817-4.06,1.836-6.58,2.708l-3.9,1.413c-1.36.477-2.83.844-4.32,1.3-3,.918-6.25,1.625-9.68,2.414a124.621,124.621,0,0,1-45.68.734c-3.46-.67-6.77-1.239-9.77-2.093-1.51-.413-3-.734-4.36-1.166l-4-1.294c-2.54-.753-4.72-1.735-6.67-2.487-1-.395-1.89-.743-2.7-1.1l-2.2-1.065-3-1.478-.78-.4a.937.937,0,0,1-.26-.147,1.155,1.155,0,0,1,.28.11l.81.349,3.08,1.4,2.21,1.019c.82.358,1.74.679,2.71,1.065,2,.734,4.14,1.689,6.69,2.423l4,1.248c1.37.431,2.85.743,4.35,1.138,3,.844,6.3,1.386,9.74,2.047a126.357,126.357,0,0,0,45.5-.734c3.42-.771,6.69-1.423,9.65-2.359,1.49-.45,3-.808,4.32-1.276L305.31,325c2.52-.808,4.66-1.836,6.59-2.634,1-.413,1.86-.771,2.67-1.147l2.18-1.092,3-1.5.79-.385A1.047,1.047,0,0,1,320.81,318.13Z" transform="translate(-44.76 -170.782)" fill="#263238"/>
      <path id="Path_58" data-name="Path 58" d="M371.2,311.78s-.05.229-.16.652-.3,1.074-.53,1.9c-.12.422-.23.918-.4,1.4s-.39,1.055-.61,1.652-.46,1.239-.71,1.927a22.783,22.783,0,0,1-1,2.139c-.63,1.533-1.6,3.13-2.55,4.91l-1.71,2.7c-.57.918-1.31,1.836-2,2.827a74.681,74.681,0,0,1-11.22,11.932,86.955,86.955,0,0,1-7.69,5.893,91.808,91.808,0,0,1-9.12,5.406,98.5,98.5,0,0,1-10.45,4.663q-5.705,2.144-11.63,3.736a166.341,166.341,0,0,1-25.92,4.708c-4.56.477-9.21.826-13.94,1.074s-9.53.376-14.39.431c-9.72.1-19.22,0-28.38-.551a178.3,178.3,0,0,1-26.17-3.405,120.439,120.439,0,0,1-11.84-3.13c-1.91-.56-3.72-1.276-5.53-1.9l-2.61-1.028-1.31-.523-1.26-.587a84.2,84.2,0,0,1-17.43-10.454c-9.74-7.618-15.42-15.86-18.17-21.872l-1-2.129c-.28-.679-.5-1.331-.72-1.927s-.42-1.147-.61-1.652-.27-.982-.4-1.4c-.22-.826-.39-1.459-.5-1.9s-.16-.652-.16-.652.08.211.21.642.31,1.065.56,1.882c.12.413.24.918.42,1.386l.62,1.643c.24.6.46,1.239.74,1.909s.65,1.377,1,2.12c2.79,5.966,8.49,14.135,18.21,21.688a84.493,84.493,0,0,0,17.39,10.353l1.26.578,1.3.523,2.63,1.056c1.8.624,3.61,1.331,5.51,1.891a119.648,119.648,0,0,0,11.8,3.093,177.056,177.056,0,0,0,26.1,3.368c9.13.569,18.62.643,28.33.542q7.29-.083,14.37-.431t13.91-1.065a166.551,166.551,0,0,0,25.85-4.663q5.895-1.559,11.59-3.671a100.578,100.578,0,0,0,10.41-4.589,91.088,91.088,0,0,0,9.09-5.351,90.162,90.162,0,0,0,7.68-5.837,75.4,75.4,0,0,0,11.23-11.858c.68-.973,1.42-1.836,2-2.8l1.72-2.671a53.828,53.828,0,0,0,2.59-4.883l1-2.12c.26-.688.51-1.322.74-1.918l.66-1.781c.18-.5.3-.973.43-1.386.25-.817.44-1.441.57-1.836S371.2,311.78,371.2,311.78Z" transform="translate(-44.76 -170.26)" fill="#263238"/>
      <path id="Path_59" data-name="Path 59" d="M258.44,386.638a1.433,1.433,0,0,1,0-.34,5.527,5.527,0,0,1,0-1,6.729,6.729,0,0,1,1.82-3.424,16.017,16.017,0,0,1,5.34-3.561c2.32-1.019,5.15-1.836,7.82-3.451a9.551,9.551,0,0,0,3.37-3.3,8.767,8.767,0,0,0,1.07-4.791,15.752,15.752,0,0,0-4.68-9.9,24.585,24.585,0,0,0-25.08-6.049c-4.54,1.606-8.54,4.378-13.28,5.122a21.135,21.135,0,0,1-6.9-.22c-2.21-.376-4.33-.872-6.43-1.166-10.765-1.695-21.111,4.582-23.63,14.337a18.324,18.324,0,0,0,.07,9.72c.12.422.23.743.3.918a1.767,1.767,0,0,1,.08.33,2.56,2.56,0,0,1-.13-.312c-.08-.211-.22-.523-.35-.918a16.636,16.636,0,0,1-.75-3.763,18.126,18.126,0,0,1,.49-6.039,18.6,18.6,0,0,1,3.67-7.278,22.529,22.529,0,0,1,20.32-7.435c2.13.285,4.26.78,6.45,1.147a20.875,20.875,0,0,0,6.72.211c4.58-.716,8.55-3.46,13.19-5.112a25.093,25.093,0,0,1,25.6,6.186,16.086,16.086,0,0,1,4.76,10.17,9.227,9.227,0,0,1-1.16,4.984,9.832,9.832,0,0,1-3.51,3.405c-2.76,1.643-5.6,2.423-7.91,3.423a15.8,15.8,0,0,0-5.3,3.442,6.709,6.709,0,0,0-1.87,3.313C258.4,386.152,258.49,386.638,258.44,386.638Z" transform="translate(-44.76 -173.325)" fill="#fafafa"/>
      <path id="Path_60" data-name="Path 60" d="M345.83,363.866c-.05,0,0-.734-.09-2.047a13.483,13.483,0,0,0-1.62-5.305,12.926,12.926,0,0,0-6.22-5.663,13.244,13.244,0,0,0-10.5-.193,10.529,10.529,0,0,0-6.35,7.581,11.306,11.306,0,0,0,1.86,7.829,23.189,23.189,0,0,0,3.65,4.424c1,.918,1.6,1.432,1.57,1.459s-.17-.092-.47-.312-.71-.56-1.24-1.019a21.606,21.606,0,0,1-3.83-4.387,11.525,11.525,0,0,1-2-8.059c1.035-5.42,6.324-9.273,12.31-8.967a14.4,14.4,0,0,1,5.23,1.239,13.117,13.117,0,0,1,7.84,11.345,11.393,11.393,0,0,1,0,1.524A1.969,1.969,0,0,1,345.83,363.866Z" transform="translate(-44.76 -173.334)" fill="#fafafa"/>
      <path id="Path_61" data-name="Path 61" d="M348.58,303.77a13.393,13.393,0,0,1,2,2.5,15.184,15.184,0,0,1,2.64,8.1,11.437,11.437,0,0,1-1.42,5.736,12.184,12.184,0,0,1-5,4.947,11.2,11.2,0,0,1-3.81,1.184,31.314,31.314,0,0,1-4.16.165,21.585,21.585,0,0,0-4.21.266,9.278,9.278,0,0,0-3.82,1.68c-2.28,1.689-3.79,4.02-5.48,6.076s-3.63,4.029-6.19,4.809a11.573,11.573,0,0,1-7.32-.349,14.708,14.708,0,0,1-5.28-3.341,26.6,26.6,0,0,1-4.94-7.177c-.45-.918-.78-1.625-1-2.111a4.52,4.52,0,0,1-.3-.753,6.086,6.086,0,0,1,.4.716c.27.514.64,1.2,1.09,2.074a28.073,28.073,0,0,0,5,7.021,14.593,14.593,0,0,0,5.18,3.2,11.066,11.066,0,0,0,7,.294c2.41-.743,4.3-2.625,5.94-4.663s3.18-4.4,5.56-6.177a10.023,10.023,0,0,1,4-1.771,22.326,22.326,0,0,1,4.32-.266,33.272,33.272,0,0,0,4.09-.147,10.623,10.623,0,0,0,3.64-1.12,11.755,11.755,0,0,0,4.85-4.736,11.185,11.185,0,0,0,1.44-5.553,15.357,15.357,0,0,0-2.44-8,22.8,22.8,0,0,0-1.35-1.937,5.325,5.325,0,0,1-.43-.661Z" transform="translate(-44.76 -169.602)" fill="#fafafa"/>
      <path id="Path_62" data-name="Path 62" d="M233.31,328.84a2.589,2.589,0,0,1,0,.523,11.149,11.149,0,0,1-.26,1.505,14.829,14.829,0,0,1-2.3,5.158,15.377,15.377,0,0,1-6.74,5.452,16.371,16.371,0,0,1-10.92.615,13.509,13.509,0,0,1-8.09-6.746,10.264,10.264,0,0,1-1.07-4.35,10.586,10.586,0,0,1,.68-3.837,10.9,10.9,0,0,1,3.33-4.653,6.774,6.774,0,0,1,.75-.542,4.243,4.243,0,0,1,.58-.358,2.933,2.933,0,0,1,.51-.257,13.936,13.936,0,0,0-1.7,1.294,11.043,11.043,0,0,0-3.12,4.589,10.445,10.445,0,0,0-.6,3.717,9.927,9.927,0,0,0,1.08,4.176,13.087,13.087,0,0,0,7.79,6.471,15.887,15.887,0,0,0,10.55-.56,15.208,15.208,0,0,0,6.63-5.232,15.75,15.75,0,0,0,2.41-5.021C233.18,329.555,233.26,328.83,233.31,328.84Z" transform="translate(-44.76 -171.046)" fill="#fafafa"/>
      <path id="Path_63" data-name="Path 63" d="M160.48,306.913l.22-.064.66-.156c.58-.119,1.44-.3,2.56-.477a20.4,20.4,0,0,1,4.13-.257,10.772,10.772,0,0,1,5.23,1.524,7.6,7.6,0,0,1,2.27,2.111,5.1,5.1,0,0,1,.93,3.1c0,2.313-1.51,4.387-2.55,6.6a9.74,9.74,0,0,0-.56,7.343,68.909,68.909,0,0,0,3.24,7.682,22.556,22.556,0,0,1,1.37,4.048,12.76,12.76,0,0,1,.22,4.121,14.539,14.539,0,0,1-3,7.242,16.188,16.188,0,0,1-2.67,2.68,15.93,15.93,0,0,1-3.13,1.836,16.471,16.471,0,0,1-6.49,1.349,17.268,17.268,0,0,1-9.14-2.46,11.447,11.447,0,0,1-2.64-2.129,23.654,23.654,0,0,0,2.75,1.973,17.413,17.413,0,0,0,9,2.276,15.993,15.993,0,0,0,6.3-1.368,15.214,15.214,0,0,0,3-1.836,16,16,0,0,0,2.58-2.616,14.267,14.267,0,0,0,2.88-7.031,15.4,15.4,0,0,0-1.57-7.948,64.711,64.711,0,0,1-3.25-7.737,11.218,11.218,0,0,1-.45-3.965,9.785,9.785,0,0,1,1.06-3.671c1.09-2.24,2.51-4.268,2.56-6.425a5.713,5.713,0,0,0-3-4.929,10.464,10.464,0,0,0-5-1.533,22.3,22.3,0,0,0-4.09.174c-1.12.147-2,.294-2.57.395a6.339,6.339,0,0,1-.85.147Z" transform="translate(-44.76 -169.78)" fill="#fafafa"/>
      <path id="Path_64" data-name="Path 64" d="M276.13,244.536a2.117,2.117,0,0,1,.14.45,7.506,7.506,0,0,1,.22,1.322,11.247,11.247,0,0,1-.71,4.865c-1.995,5.369-7.7,8.817-13.86,8.38a15.218,15.218,0,0,1-8.94-3.378,14.276,14.276,0,0,1-4.25-6.14,13.072,13.072,0,0,1-.71-4.874,9.022,9.022,0,0,1,.16-1.322,1.8,1.8,0,0,1,.11-.459c.06,0-.06.643-.07,1.836a14.029,14.029,0,0,0,.86,4.754,14.177,14.177,0,0,0,4.22,5.911,14.924,14.924,0,0,0,8.64,3.231,14.463,14.463,0,0,0,8.94-2.386,12.385,12.385,0,0,0,5.41-10.408C276.24,245.17,276.07,244.546,276.13,244.536Z" transform="translate(-44.76 -164.64)" fill="#fafafa"/>
      <path id="Path_65" data-name="Path 65" d="M278.21,275.8a15.62,15.62,0,0,0-2.38-2.276,10.122,10.122,0,0,0-7.724-1.816,9.5,9.5,0,0,0-6.506,4.23,14.2,14.2,0,0,0-1.33,2.91,2.538,2.538,0,0,1,.1-.863,7.5,7.5,0,0,1,.92-2.212,9.418,9.418,0,0,1,2.46-2.7,9.968,9.968,0,0,1,9-1.524,10.409,10.409,0,0,1,3.35,1.707,8.163,8.163,0,0,1,1.72,1.771,2.549,2.549,0,0,1,.39.771Z" transform="translate(-44.76 -166.916)" fill="#fafafa"/>
      <path id="Path_66" data-name="Path 66" d="M183.49,267.605a18.81,18.81,0,0,0-4.73-4.24,20.961,20.961,0,0,0-6.19-2.129,5.435,5.435,0,0,1,2,.1,12.985,12.985,0,0,1,8,4.653,4.356,4.356,0,0,1,.92,1.615Z" transform="translate(-44.76 -166.103)" fill="#fafafa"/>
      <path id="Path_67" data-name="Path 67" d="M44.76,241.176,71,266.711a2.855,2.855,0,0,0,3.09.386l8-3.91L208.1,313.474s20.9,10.5,39.53,11.831l6-41.018L85.45,252.429,46.57,239.35Z" transform="translate(-44.76 -164.309)" fill="#ffbe9d"/>
      <path id="Path_68" data-name="Path 68" d="M209.43,285.813l38.2,40.669c40.36,4.791,62.59-9.178,62.59-9.178L238.1,261.371a37.658,37.658,0,0,0-25.8-7.591h0a37.5,37.5,0,0,0-17.94,6.094l-84.89,50.27,9.17,10.61Z" transform="translate(-44.76 -165.486)" fill="#ffbe9d"/>
      <path id="Path_69" data-name="Path 69" d="M110.61,314.46,80.28,320.7l-8.48-.11-.49,2.3,41.05,8.582a4.741,4.741,0,0,0,5.64-3.212l.92-3.506-5.51-7.829" transform="translate(-44.76 -170.48)" fill="#ffbe9d"/>
      <path id="Path_70" data-name="Path 70" d="M188.05,264.71c.08.11-17.19,10.427-38.58,23.029s-38.79,22.753-38.86,22.634,17.19-10.417,38.58-23.029S188,264.6,188.05,264.71Z" transform="translate(-44.76 -166.392)" fill="#eb996e"/>
      <path id="Path_71" data-name="Path 71" d="M247.63,329.259l-.19-.174-.51-.532L245,326.506l-7.07-7.664-23.21-25.378-5.07-5.58.3.064-28.17,11.3-8.35,3.3-2.26.872-.59.211-.21.064a.594.594,0,0,1,.19-.1l.57-.257,2.22-.918,8.29-3.433,28.1-11.445.18-.073.12.138,5.08,5.58,23.07,25.479c2.92,3.249,5.28,5.893,6.95,7.756l1.87,2.129.47.56C247.59,329.259,247.64,329.259,247.63,329.259Z" transform="translate(-44.76 -168.263)" fill="#eb996e"/>
      <path id="Path_72" data-name="Path 72" d="M215.79,276.36a4.433,4.433,0,0,1-.09,1.836,13.542,13.542,0,0,1-4.49,7.783,5.291,5.291,0,0,1-1.61,1.1,23.9,23.9,0,0,0,4.08-4.883A22.469,22.469,0,0,0,215.79,276.36Z" transform="translate(-44.76 -167.35)" fill="#eb996e"/>
      <path id="Path_73" data-name="Path 73" d="M268.62,282.932l14-13.621s-2.78-13.9,1-19.954c3.66-5.837,25.9-21.477,25.9-21.477a34.224,34.224,0,0,1,3.45.918s-26.58,19.027-8.63,26.617c12.35,5.232,27.53-4.195,35.75-18.641l2.83,1.2-9.14,32.51s-15.68,17.76-14.52,22.671c1.77,7.508-7.82,22.515-9,22.028Z" transform="translate(-44.76 -163.366)" fill="#263238"/>
      <path id="Path_74" data-name="Path 74" d="M315.19,309.95a3.507,3.507,0,0,0,0-1.992,4.531,4.531,0,0,0-1.3-2,6.9,6.9,0,0,0-2.89-1.5,29.3,29.3,0,0,0-4.12-.652,14.338,14.338,0,0,1-4.73-1.175,9.007,9.007,0,0,1-3.59-3.671,11.28,11.28,0,0,0-3.42-4.038,11.508,11.508,0,0,0-5.32-1.441c-1.82-.119-3.62,0-5.33,0a16.07,16.07,0,0,1-4.84-.661,10.436,10.436,0,0,1-3.64-2.047,9.72,9.72,0,0,1-3.13-4.809,7.231,7.231,0,0,1-.26-1.514,1.973,1.973,0,0,1,0-.532,18.515,18.515,0,0,0,.44,2,9.9,9.9,0,0,0,3.19,4.589,10.224,10.224,0,0,0,3.53,1.918,15.572,15.572,0,0,0,4.7.6c1.7,0,3.49-.1,5.37,0a11.953,11.953,0,0,1,5.57,1.514,11.549,11.549,0,0,1,3.57,4.2,8.58,8.58,0,0,0,3.38,3.552,14.172,14.172,0,0,0,4.55,1.175,27.073,27.073,0,0,1,4.18.716,6.988,6.988,0,0,1,3,1.634,4.571,4.571,0,0,1,1.29,2.139,3,3,0,0,1,0,1.542A1.623,1.623,0,0,1,315.19,309.95Z" transform="translate(-44.76 -167.971)" fill="#fafafa"/>
      <path id="Path_75" data-name="Path 75" d="M318.57,295.111c-.05,0-.22-.569-.72-1.551a13.327,13.327,0,0,0-2.9-3.671,14.185,14.185,0,0,0-6.34-3.277c-2.7-.624-5.8-.3-9-.1a21.186,21.186,0,0,1-9.09-1.193,19.614,19.614,0,0,1-6.29-3.754,16.263,16.263,0,0,1-3.11-3.671,10.9,10.9,0,0,1-.63-1.129,2.3,2.3,0,0,1-.17-.413c.05,0,.33.532,1,1.441a17.788,17.788,0,0,0,3.19,3.515,20.094,20.094,0,0,0,6.22,3.6,21.185,21.185,0,0,0,8.88,1.12c3.21-.193,6.38-.523,9.19.147a14.324,14.324,0,0,1,6.48,3.469,12.417,12.417,0,0,1,2.72,3.827,7.481,7.481,0,0,1,.44,1.2A1.092,1.092,0,0,1,318.57,295.111Z" transform="translate(-44.76 -167.349)" fill="#fafafa"/>
      <path id="Path_76" data-name="Path 76" d="M324.32,282.3a1.754,1.754,0,0,1-.5.1c-.33.046-.82.11-1.45.174a28.311,28.311,0,0,1-5.38.119,13.883,13.883,0,0,1-3.65-.762,10.3,10.3,0,0,1-3.58-2.212c-1.08-.982-2-2.157-3.07-3.277a13.631,13.631,0,0,0-3.78-2.9,44.426,44.426,0,0,0-9.09-2.992,26.459,26.459,0,0,1-7.34-2.882,12.98,12.98,0,0,1-2.37-1.836,8.514,8.514,0,0,1-1.36-1.735,6.169,6.169,0,0,1-.59-1.239,1.319,1.319,0,0,1-.12-.459c.06,0,.24.615.88,1.606a9.955,9.955,0,0,0,1.4,1.643,13.475,13.475,0,0,0,2.36,1.716,26.771,26.771,0,0,0,7.27,2.754,43.19,43.19,0,0,1,9.22,2.992,14.134,14.134,0,0,1,3.9,3.01c1.07,1.147,2,2.322,3,3.286a11.332,11.332,0,0,0,6.93,2.946,33.173,33.173,0,0,0,5.32,0l1.46-.083A3.062,3.062,0,0,1,324.32,282.3Z" transform="translate(-44.76 -166.203)" fill="#fafafa"/>
      <path id="Path_77" data-name="Path 77" d="M332.82,272.908c-.06,0-.25-.734-.91-1.946a12.675,12.675,0,0,0-4-4.314,13.636,13.636,0,0,0-8.66-2.276c-1.74.092-3.56.386-5.49.56a15.422,15.422,0,0,1-6-.431,17.224,17.224,0,0,1-5.21-2.753,50.4,50.4,0,0,1-4.08-3.451,26.431,26.431,0,0,0-7.29-5.195,11.874,11.874,0,0,0-6.06-.918,12.857,12.857,0,0,0-2.21.56,5.887,5.887,0,0,1,2.18-.743,11.663,11.663,0,0,1,6.23.808A25.881,25.881,0,0,1,298.81,258a51.115,51.115,0,0,0,4.06,3.4,16.876,16.876,0,0,0,5.05,2.634,14.823,14.823,0,0,0,5.77.422c1.89-.165,3.72-.45,5.5-.532a14.605,14.605,0,0,1,5,.56,13.35,13.35,0,0,1,3.89,1.882,12.3,12.3,0,0,1,4,4.507,8.581,8.581,0,0,1,.6,1.487A2.891,2.891,0,0,1,332.82,272.908Z" transform="translate(-44.76 -165.338)" fill="#fafafa"/>
      <path id="Path_78" data-name="Path 78" d="M336.5,261.1a4.546,4.546,0,0,1-1.91-.174,9.862,9.862,0,0,1-6.77-5.507,3.817,3.817,0,0,1-.43-1.716,14.218,14.218,0,0,1,.76,1.579,10.639,10.639,0,0,0,2.7,3.258,11.515,11.515,0,0,0,3.85,2.047C335.79,260.942,336.51,261.015,336.5,261.1Z" transform="translate(-44.76 -165.488)" fill="#fafafa"/>
      <path id="Path_79" data-name="Path 79" d="M339.78,252.327a32.254,32.254,0,0,0-2.69-2.414q-1.576-.951-3.25-1.753a7.572,7.572,0,0,1,5.94,4.167Z" transform="translate(-44.76 -165.033)" fill="#fafafa"/>
      <path id="Path_80" data-name="Path 80" d="M299.16,244.809a22.288,22.288,0,0,0-3-2.047,24.635,24.635,0,0,0-3.54-1.147,6.09,6.09,0,0,1,3.79.725,5.378,5.378,0,0,1,2.75,2.469Z" transform="translate(-44.76 -164.491)" fill="#fafafa"/>
    </g>
  </g>
</svg>
